<?xml version="1.0" encoding="UTF-8"?>
<svg version="1.1" xmlns="http://www.w3.org/2000/svg" width="300" height="300">
<path d="M0 0 C0.74189072 -0.00287018 1.48378143 -0.00574036 2.24815369 -0.00869751 C3.81233486 -0.0107343 5.37654172 -0.00523133 6.94067383 0.00732422 C9.33537603 0.02340749 11.72839646 0.00745222 14.12304688 -0.01171875 C15.64453497 -0.00973669 17.16602203 -0.00589379 18.6875 0 C19.76101463 -0.00910904 19.76101463 -0.00910904 20.85621643 -0.0184021 C25.79153374 0.05150947 25.79153374 0.05150947 28.20483398 1.77490234 C30.22971995 4.84011784 30.44137738 7.49625255 29.79296875 11.0625 C29.6228125 11.83335938 29.45265625 12.60421875 29.27734375 13.3984375 C30.22988037 13.41245605 30.22988037 13.41245605 31.20166016 13.42675781 C34.10265175 13.48072483 37.00207619 13.56431877 39.90234375 13.6484375 C40.90136719 13.66261719 41.90039062 13.67679688 42.9296875 13.69140625 C48.80936215 13.88609746 52.75154048 14.25811274 57.27734375 18.3984375 C61.32019181 23.22779977 60.70685534 28.5398728 60.68139648 34.51928711 C60.68825974 35.64179367 60.69512299 36.76430023 60.70219421 37.92082214 C60.72049373 41.63093723 60.71662005 45.34063072 60.7109375 49.05078125 C60.71549775 51.63001137 60.72080285 54.20924028 60.7268219 56.78846741 C60.73575922 62.194565 60.73355653 67.60050075 60.72338867 73.0065918 C60.71190927 79.24776395 60.72598179 85.48850631 60.75278515 91.72962183 C60.77764117 97.74338645 60.78011554 103.75693044 60.77366829 109.77075386 C60.77351486 112.32522865 60.77957671 114.87971164 60.79195976 117.43415642 C60.80683416 121.00582744 60.7962174 124.57655198 60.77905273 128.14819336 C60.7887207 129.20345215 60.79838867 130.25871094 60.80834961 131.34594727 C60.74971737 137.17131386 60.39458848 140.91440638 56.27734375 145.3984375 C52.14921589 148.82195818 48.08280392 148.84327225 42.92626953 148.83422852 C42.09797638 148.84430435 41.26968323 148.85438019 40.41629028 148.86476135 C37.6849407 148.89319974 34.95414456 148.89911574 32.22265625 148.90234375 C30.31842829 148.91198762 28.41420256 148.92208031 26.50997925 148.93260193 C22.52043506 148.9505529 18.53108562 148.95612401 14.54150391 148.9543457 C9.43789458 148.95404089 4.33553792 148.99499805 -0.76777458 149.04666233 C-4.70042619 149.08007519 -8.63277656 149.08610178 -12.56555557 149.08451653 C-14.44658858 149.08804893 -16.32763002 149.10127551 -18.2085228 149.12451363 C-20.84416319 149.15402878 -23.47710585 149.14524292 -26.11279297 149.12719727 C-27.269505 149.15248505 -27.269505 149.15248505 -28.44958496 149.17828369 C-33.8040971 149.08547789 -36.51066193 147.53551013 -40.39644051 143.88062954 C-42.81264828 141.18025146 -42.85373333 139.24315649 -42.8765564 135.71856689 C-42.88515686 134.73161835 -42.89375732 133.7446698 -42.90261841 132.72781372 C-42.90687836 131.6410434 -42.91113831 130.55427307 -42.91552734 129.43457031 C-42.92370483 128.29299469 -42.93188232 127.15141907 -42.94030762 125.97525024 C-42.96519238 122.18402639 -42.98168542 118.39284005 -42.99609375 114.6015625 C-43.00141743 113.3090432 -43.0067411 112.0165239 -43.0122261 110.68483734 C-43.03346221 105.2529574 -43.05259182 99.82108971 -43.0638485 94.38917923 C-43.08008056 86.60776248 -43.11323783 78.82684564 -43.17024934 71.04561734 C-43.2136485 64.91282792 -43.2295966 58.7802343 -43.23598099 52.64730072 C-43.2427066 50.03976636 -43.25796234 47.43223963 -43.2818718 44.82480621 C-43.31342069 41.17611041 -43.31357464 37.5286787 -43.30615234 33.87988281 C-43.32255768 32.80120941 -43.33896301 31.72253601 -43.35586548 30.61117554 C-43.28775322 22.437622 -43.28775322 22.437622 -40.30953979 18.76602173 C-36.21936508 15.02258567 -33.82878457 14.14170274 -28.30078125 14.203125 C-27.27597656 14.20957031 -26.25117187 14.21601562 -25.1953125 14.22265625 C-24.13183594 14.23941406 -23.06835938 14.25617188 -21.97265625 14.2734375 C-20.35423828 14.28697266 -20.35423828 14.28697266 -18.703125 14.30078125 C-16.04274347 14.32432445 -13.38281289 14.35720951 -10.72265625 14.3984375 C-11.05265625 13.7384375 -11.38265625 13.0784375 -11.72265625 12.3984375 C-11.9609375 10.33984375 -11.9609375 10.33984375 -12.03515625 7.9609375 C-12.07253906 7.17847656 -12.10992187 6.39601563 -12.1484375 5.58984375 C-11.72265625 3.3984375 -11.72265625 3.3984375 -10.17871094 1.78637695 C-6.82508277 -0.10878966 -3.7501532 -0.03191124 0 0 Z " fill="#191B1D" transform="translate(144.72265625,67.6015625)"/>
<path d="M0 0 C0.68964844 -0.04576172 1.37929687 -0.09152344 2.08984375 -0.13867188 C18.53317902 -0.46984238 36.74730639 9.74802084 51.75 15.625 C53.92634533 16.47507617 56.10277833 17.32492796 58.27929688 18.17456055 C61.50809867 19.43527596 64.73667527 20.69654773 67.9644165 21.9599762 C73.95837327 24.30516731 79.96102296 26.62486951 85.9765625 28.9140625 C87.26984604 29.40951545 88.56298505 29.90534589 89.85595703 30.40161133 C92.10637935 31.26390372 94.35971457 32.11865613 96.61669922 32.96362305 C105.96037415 36.57190296 115.11338212 41.16405403 119.875 50.4375 C121.97594235 57.05488155 121.98665067 62.80715003 121.5859375 69.69921875 C121.53231049 70.78538986 121.47868347 71.87156097 121.4234314 72.99064636 C121.30838231 75.29901033 121.18823804 77.60712522 121.06335449 79.91497803 C120.87822496 83.37718829 120.71184961 86.8397717 120.55175781 90.30322266 C120.2813212 96.11102144 119.98754248 101.91730466 119.68261719 107.72338867 C119.56041948 110.0832093 119.44228488 112.44324368 119.328125 114.8034668 C117.47420563 153.05372085 110.86673623 186.35809063 83.9609375 215.19921875 C82.01055617 217.29204366 80.15868633 219.44048541 78.3125 221.625 C74.79919254 225.63336442 70.99177802 229.05945866 66.875 232.4375 C65.88886719 233.26121094 64.90273437 234.08492187 63.88671875 234.93359375 C50.69969677 245.75221488 36.1008496 254.36973253 20.67089844 261.59277344 C18.98157902 262.38736903 17.30660041 263.2122516 15.6328125 264.0390625 C8.04649423 267.56620788 1.08606873 269.45153037 -7.1171875 266.79150391 C-12.63322626 264.71414956 -17.886959 262.12900062 -23.125 259.4375 C-24.28370605 258.84388672 -24.28370605 258.84388672 -25.46582031 258.23828125 C-35.97220362 252.77973154 -45.72118328 246.62178234 -55.125 239.4375 C-56.00800781 238.77878906 -56.89101562 238.12007812 -57.80078125 237.44140625 C-86.63470793 214.99557258 -109.35706316 183.53479943 -114.65209961 146.77856445 C-114.80541955 145.43262631 -114.95073925 144.08576276 -115.08984375 142.73828125 C-115.17115036 141.95256241 -115.25245697 141.16684357 -115.33622742 140.35731506 C-116.65916899 126.72551664 -117.37414055 113.03615563 -118.1496582 99.36450195 C-118.38777606 95.18478016 -118.6469104 91.00662395 -118.91041279 86.82843685 C-119.11185348 83.57151485 -119.29740806 80.3138224 -119.47878075 77.05572701 C-119.56733066 75.51458035 -119.66176345 73.97375862 -119.762537 72.43336296 C-120.38740414 62.78481984 -120.57059864 54.19912602 -115.46875 45.66796875 C-114.8603125 44.99378906 -114.251875 44.31960937 -113.625 43.625 C-113.0371875 42.93792969 -112.449375 42.25085937 -111.84375 41.54296875 C-104.50202278 35.85734954 -94.72876562 33.03017136 -86.109375 29.77734375 C-84.9866066 29.35020584 -83.8638382 28.92306793 -82.70704651 28.48298645 C-79.0975693 27.11046133 -75.4863093 25.7426964 -71.875 24.375 C-66.92523433 22.49492736 -61.97631021 20.61264397 -57.02734375 18.73046875 C-55.81914474 18.27137115 -54.61094574 17.81227356 -53.36613464 17.33926392 C-46.48672981 14.72349805 -39.61395973 12.09189354 -32.75390625 9.42578125 C-32.01556549 9.13883896 -31.27722473 8.85189667 -30.51651001 8.55625916 C-27.24544439 7.28358356 -23.97601506 6.00682471 -20.70800781 4.72631836 C-19.60424805 4.29585205 -18.50048828 3.86538574 -17.36328125 3.421875 C-15.971698 2.87611816 -15.971698 2.87611816 -14.55200195 2.31933594 C-9.69881025 0.55595917 -5.14660203 0.12933402 0 0 Z M-14.125 21.4375 C-15.14121429 21.80313049 -16.15742859 22.16876099 -17.20443726 22.54547119 C-20.31896778 23.69076392 -23.41626026 24.87447866 -26.51171875 26.0703125 C-27.65244339 26.50705292 -28.79316803 26.94379333 -29.96846008 27.39376831 C-33.58468271 28.77936307 -37.19861929 30.17081019 -40.8125 31.5625 C-43.18279372 32.47174266 -45.55323555 33.38059931 -47.92382812 34.2890625 C-52.63548039 36.09498043 -57.34449256 37.90757915 -62.05224609 39.72363281 C-66.86357678 41.5767091 -71.68471703 43.40072847 -76.51416016 45.20605469 C-77.70153275 45.65326874 -78.88890533 46.10048279 -80.11225891 46.56124878 C-82.36581568 47.40943326 -84.62202855 48.25060591 -86.88127136 49.08352661 C-95.34020656 52.01011071 -95.34020656 52.01011071 -101.125 58.4375 C-102.01250719 73.69391197 -100.52748164 89.17398521 -99.63574219 104.41162109 C-99.45982947 107.42844276 -99.29346463 110.44555224 -99.13574219 113.46337891 C-96.9073714 155.97537331 -84.95776577 189.13587635 -53.01904297 218.28930664 C-40.12294037 229.6524917 -15.16072119 250.05942142 2.875 249.4375 C34.62092971 240.98116065 67.68533447 212.87695632 84.16430664 185.09790039 C85.8002276 182.24333347 87.34477921 179.35040908 88.875 176.4375 C89.34679687 175.55964844 89.81859375 174.68179688 90.3046875 173.77734375 C96.59681742 161.13446159 99.05281631 147.65798108 99.90625 133.67578125 C99.98594528 132.46654999 100.06564056 131.25731873 100.14775085 130.01144409 C100.39889347 126.15396409 100.63760736 122.2958484 100.875 118.4375 C101.03675618 115.90079057 101.1986208 113.36408805 101.3605957 110.82739258 C101.75772626 104.51114367 102.12325829 98.19358332 102.47241211 91.87451172 C102.6180483 89.29339534 102.77059667 86.71266129 102.92944336 84.13232422 C103.16278393 80.33112337 103.37475339 76.52926244 103.58203125 72.7265625 C103.65686234 71.57668854 103.73169342 70.42681458 103.80879211 69.24209595 C104.29000892 61.36177887 104.29000892 61.36177887 100.875 54.4375 C98.48262643 52.7946973 98.48262643 52.7946973 95.44140625 51.7421875 C94.84872452 51.50740692 94.25604279 51.27262634 93.645401 51.0307312 C92.2348837 50.47618717 90.82021553 49.93214174 89.40264893 49.39587402 C86.50187159 48.29602601 83.61417576 47.16493811 80.72607422 46.03222656 C74.06522375 43.42756239 67.39129909 40.85745446 60.71472168 38.29345703 C57.57527505 37.08707787 54.43711527 35.87736028 51.29882812 34.66796875 C46.43062918 32.79215631 41.55966196 30.92378511 36.68701172 29.05957031 C32.35857517 27.40102971 28.04323548 25.71486441 23.73876953 23.99511719 C22.79514053 23.62272919 21.85151154 23.25034119 20.87928772 22.8666687 C19.1646177 22.18920307 17.45358032 21.50241847 15.74754333 20.80349731 C4.7105314 16.47610867 -3.0536115 17.38323473 -14.125 21.4375 Z " fill="#1A1D21" transform="translate(152.125,17.5625)"/>
<path d="M0 0 C22.44 0 44.88 0 68 0 C68 33.33 68 66.66 68 101 C45.56 101 23.12 101 0 101 C0 67.67 0 34.34 0 0 Z " fill="#FDDD38" transform="translate(119,99)"/>
<path d="M0 0 C22.44 0 44.88 0 68 0 C68 33.33 68 66.66 68 101 C45.56 101 23.12 101 0 101 C0 67.67 0 34.34 0 0 Z M2 1 C2 33.34 2 65.68 2 99 C23.45 99 44.9 99 67 99 C67 66.66 67 34.32 67 1 C45.55 1 24.1 1 2 1 Z " fill="#EADB63" transform="translate(119,99)"/>
<path d="M0 0 C0.33 0 0.66 0 1 0 C1.28927934 4.90697781 1.57390102 9.81419739 1.85449219 14.72167969 C1.95026505 16.38581357 2.04723819 18.04987888 2.14550781 19.71386719 C3.77106929 47.28206286 3.77106929 47.28206286 1 52 C0.6851935 46.84518813 0.38264051 41.68984191 0.09057617 36.53369141 C-0.01004232 34.78610704 -0.11379078 33.03869956 -0.22094727 31.29150391 C-0.86600387 20.73438026 -1.12276354 10.54374068 0 0 Z " fill="#363839" transform="translate(51,93)"/>
<path d="M0 0 C2 2 2 2 2.13525391 4.52197266 C2.08288574 5.5588623 2.03051758 6.59575195 1.9765625 7.6640625 C1.925 8.78554687 1.8734375 9.90703125 1.8203125 11.0625 C1.75585938 12.238125 1.69140625 13.41375 1.625 14.625 C1.56828125 15.80835937 1.5115625 16.99171875 1.453125 18.2109375 C1.31133757 21.14121112 1.15989667 24.07066772 1 27 C0.67 27 0.34 27 0 27 C-0.33 25.02 -0.66 23.04 -1 21 C-1.33 21 -1.66 21 -2 21 C-2.04241723 18.66705225 -2.04092937 16.33297433 -2 14 C-1.67 13.67 -1.34 13.34 -1 13 C-0.76518307 10.81707226 -0.58636677 8.62796826 -0.4375 6.4375 C-0.35371094 5.23996094 -0.26992188 4.04242188 -0.18359375 2.80859375 C-0.12300781 1.88175781 -0.06242187 0.95492187 0 0 Z " fill="#444546" transform="translate(272,74)"/>
<path d="M0 0 C1.64528614 3.12752591 2.91702499 6.3053057 4.125 9.625 C4.47820313 10.58664063 4.83140625 11.54828125 5.1953125 12.5390625 C6 15 6 15 6 17 C5.01 16.67 4.02 16.34 3 16 C0.33838184 10.38102832 -0.3306901 6.17288188 0 0 Z " fill="#3A3B3C" transform="translate(57,170)"/>
<path d="M0 0 C1.20628008 2.33214148 2.1654738 4.49642139 3 7 C1.25 10.1875 1.25 10.1875 -1 13 C-1.99 13 -2.98 13 -4 13 C-3.525625 11.96875 -3.05125 10.9375 -2.5625 9.875 C-1.15477612 6.61465838 -0.43164502 3.53948917 0 0 Z " fill="#212225" transform="translate(202,200)"/>
<path d="M0 0 C0.53625 0.268125 1.0725 0.53625 1.625 0.8125 C-0.38479059 3.82718588 -1.08236015 4.65039182 -4.375 5.8125 C-6.625 5.4375 -6.625 5.4375 -8.375 4.8125 C-2.95961538 -0.23365385 -2.95961538 -0.23365385 0 0 Z " fill="#303133" transform="translate(203.375,240.1875)"/>
<path d="M0 0 C0.66 0.33 1.32 0.66 2 1 C2 1.66 2 2.32 2 3 C2.33 3.99 2.66 4.98 3 6 C-2.75 4.125 -2.75 4.125 -5 3 C-5 2.34 -5 1.68 -5 1 C-3 0 -3 0 0 0 Z " fill="#2D2E30" transform="translate(136,275)"/>
<path d="M0 0 C-3.1254959 2.64465038 -6.08788267 3.84414715 -10 5 C-9 2 -9 2 -6.125 0.25 C-3 -1 -3 -1 0 0 Z " fill="#343536" transform="translate(180,275)"/>
<path d="M0 0 C0.33 1.32 0.66 2.64 1 4 C2.65 4 4.3 4 6 4 C6 4.66 6 5.32 6 6 C3.69 5.67 1.38 5.34 -1 5 C-1.33 4.01 -1.66 3.02 -2 2 C-1.34 2 -0.68 2 0 2 C0 1.34 0 0.68 0 0 Z " fill="#272729" transform="translate(109,210)"/>
<path d="M0 0 C0.66 0 1.32 0 2 0 C4.09230769 4.43076923 4.09230769 4.43076923 3.625 7.3125 C3.41875 7.869375 3.2125 8.42625 3 9 C2.71125 8.38125 2.4225 7.7625 2.125 7.125 C1.06279958 4.86674235 1.06279958 4.86674235 -1 3 C-0.67 2.01 -0.34 1.02 0 0 Z " fill="#2D2E2F" transform="translate(269,66)"/>
<path d="M0 0 C7.75 0.875 7.75 0.875 10 2 C10 2.66 10 3.32 10 4 C6.44219804 3.39009109 3.3171411 2.4216319 0 1 C0 0.67 0 0.34 0 0 Z " fill="#2A2A2C" transform="translate(229,62)"/>
<path d="M0 0 C0.33 0.66 0.66 1.32 1 2 C1.99 2.33 2.98 2.66 4 3 C2.02 3.99 0.04 4.98 -2 6 C-2 3 -2 3 0 0 Z " fill="#333436" transform="translate(201,258)"/>
</svg>
